<svg width="36" height="36" viewBox="0 0 36 36" fill="none" xmlns="http://www.w3.org/2000/svg">
<g clip-path="url(#clip0_2_15)">
<path d="M7.0819 7.54594C6.92456 7.38877 6.81733 7.18849 6.77376 6.97041C6.73018 6.75233 6.75223 6.52622 6.8371 6.32066C6.92197 6.1151 7.06587 5.9393 7.25061 5.81549C7.43534 5.69167 7.65263 5.62538 7.87503 5.625H28.125C28.3477 5.62483 28.5653 5.69071 28.7505 5.81431C28.9357 5.93792 29.08 6.11369 29.1652 6.31936C29.2504 6.52504 29.2727 6.75138 29.2292 6.96972C29.1858 7.18807 29.0785 7.3886 28.921 7.54594L18 18L7.0819 7.54594Z" stroke="black" stroke-width="3" stroke-linecap="round" stroke-linejoin="round"/>
<path d="M7.0819 28.4541C6.92456 28.6112 6.81733 28.8115 6.77376 29.0296C6.73018 29.2477 6.75223 29.4738 6.8371 29.6793C6.92197 29.8849 7.06587 30.0607 7.25061 30.1845C7.43534 30.3083 7.65263 30.3746 7.87503 30.375H28.125C28.3477 30.3752 28.5653 30.3093 28.7505 30.1857C28.9357 30.0621 29.08 29.8863 29.1652 29.6806C29.2504 29.475 29.2727 29.2486 29.2292 29.0303C29.1858 28.8119 29.0785 28.6114 28.921 28.4541L18 18L7.0819 28.4541Z" stroke="black" stroke-width="3" stroke-linecap="round" stroke-linejoin="round"/>
</g>
<defs>
<clipPath id="clip0_2_15">
<rect width="36" height="36" fill="white"/>
</clipPath>
</defs>
</svg>
